<svg width="21" height="21" viewBox="0 0 21 21" fill="none" xmlns="http://www.w3.org/2000/svg">
<path d="M10.5 15C11.6935 15 12.8381 14.5259 13.682 13.682C14.5259 12.8381 15 11.6935 15 10.5C15 9.30653 14.5259 8.16193 13.682 7.31802C12.8381 6.47411 11.6935 6 10.5 6C9.30653 6 8.16193 6.47411 7.31802 7.31802C6.47411 8.16193 6 9.30653 6 10.5C6 11.6935 6.47411 12.8381 7.31802 13.682C8.16193 14.5259 9.30653 15 10.5 15ZM10.5 16.5C8.9087 16.5 7.38258 15.8679 6.25736 14.7426C5.13214 13.6174 4.5 12.0913 4.5 10.5C4.5 8.9087 5.13214 7.38258 6.25736 6.25736C7.38258 5.13214 8.9087 4.5 10.5 4.5C12.0913 4.5 13.6174 5.13214 14.7426 6.25736C15.8679 7.38258 16.5 8.9087 16.5 10.5C16.5 12.0913 15.8679 13.6174 14.7426 14.7426C13.6174 15.8679 12.0913 16.5 10.5 16.5ZM10.5 0C10.6989 0 10.8897 0.0790176 11.0303 0.21967C11.171 0.360322 11.25 0.551088 11.25 0.75V2.25C11.25 2.44891 11.171 2.63968 11.0303 2.78033C10.8897 2.92098 10.6989 3 10.5 3C10.3011 3 10.1103 2.92098 9.96967 2.78033C9.82902 2.63968 9.75 2.44891 9.75 2.25V0.75C9.75 0.551088 9.82902 0.360322 9.96967 0.21967C10.1103 0.0790176 10.3011 0 10.5 0ZM10.5 18C10.6989 18 10.8897 18.079 11.0303 18.2197C11.171 18.3603 11.25 18.5511 11.25 18.75V20.25C11.25 20.4489 11.171 20.6397 11.0303 20.7803C10.8897 20.921 10.6989 21 10.5 21C10.3011 21 10.1103 20.921 9.96967 20.7803C9.82902 20.6397 9.75 20.4489 9.75 20.25V18.75C9.75 18.5511 9.82902 18.3603 9.96967 18.2197C10.1103 18.079 10.3011 18 10.5 18ZM3.075 3.075C3.2156 2.93474 3.40609 2.85597 3.60469 2.85597C3.80329 2.85597 3.99378 2.93474 4.13437 3.075L5.19609 4.13437C5.26581 4.20409 5.32111 4.28685 5.35884 4.37794C5.39656 4.46902 5.41598 4.56664 5.41598 4.66523C5.41598 4.76382 5.39656 4.86145 5.35884 4.95253C5.32111 5.04362 5.26581 5.12638 5.19609 5.19609C5.12638 5.26581 5.04362 5.32111 4.95253 5.35884C4.86145 5.39656 4.76382 5.41598 4.66523 5.41598C4.56664 5.41598 4.46902 5.39656 4.37794 5.35884C4.28685 5.32111 4.20409 5.26581 4.13437 5.19609L3.075 4.13437C2.93474 3.99378 2.85597 3.80329 2.85597 3.60469C2.85597 3.40609 2.93474 3.2156 3.075 3.075ZM15.8039 15.8039C15.8736 15.7341 15.9563 15.6787 16.0474 15.6409C16.1385 15.6032 16.2361 15.5837 16.3348 15.5837C16.4334 15.5837 16.531 15.6032 16.6221 15.6409C16.7132 15.6787 16.796 15.7341 16.8656 15.8039L17.925 16.8656C18.0543 17.0083 18.1237 17.1952 18.119 17.3877C18.1142 17.5801 18.0357 17.7634 17.8995 17.8995C17.7634 18.0357 17.5801 18.1142 17.3877 18.119C17.1952 18.1237 17.0083 18.0543 16.8656 17.925L15.8039 16.8656C15.7341 16.796 15.6787 16.7132 15.6409 16.6221C15.6032 16.531 15.5837 16.4334 15.5837 16.3348C15.5837 16.2361 15.6032 16.1385 15.6409 16.0474C15.6787 15.9563 15.7341 15.8736 15.8039 15.8039ZM0 10.5C0 10.3011 0.0790176 10.1103 0.21967 9.96967C0.360322 9.82902 0.551088 9.75 0.75 9.75H2.25C2.44891 9.75 2.63968 9.82902 2.78033 9.96967C2.92098 10.1103 3 10.3011 3 10.5C3 10.6989 2.92098 10.8897 2.78033 11.0303C2.63968 11.171 2.44891 11.25 2.25 11.25H0.75C0.551088 11.25 0.360322 11.171 0.21967 11.0303C0.0790176 10.8897 0 10.6989 0 10.5ZM18 10.5C18 10.3011 18.079 10.1103 18.2197 9.96967C18.3603 9.82902 18.5511 9.75 18.75 9.75H20.25C20.4489 9.75 20.6397 9.82902 20.7803 9.96967C20.921 10.1103 21 10.3011 21 10.5C21 10.6989 20.921 10.8897 20.7803 11.0303C20.6397 11.171 20.4489 11.25 20.25 11.25H18.75C18.5511 11.25 18.3603 11.171 18.2197 11.0303C18.079 10.8897 18 10.6989 18 10.5ZM3.075 17.925C2.93474 17.7844 2.85597 17.5939 2.85597 17.3953C2.85597 17.1967 2.93474 17.0062 3.075 16.8656L4.13437 15.8039C4.27517 15.6631 4.46612 15.584 4.66523 15.584C4.86435 15.584 5.0553 15.6631 5.19609 15.8039C5.33689 15.9447 5.41598 16.1357 5.41598 16.3348C5.41598 16.5339 5.33689 16.7248 5.19609 16.8656L4.13437 17.925C3.99378 18.0653 3.80329 18.144 3.60469 18.144C3.40609 18.144 3.2156 18.0653 3.075 17.925ZM15.8039 5.19609C15.7341 5.12643 15.6787 5.04368 15.6409 4.95259C15.6032 4.8615 15.5837 4.76385 15.5837 4.66523C15.5837 4.56662 15.6032 4.46897 15.6409 4.37788C15.6787 4.28678 15.7341 4.20404 15.8039 4.13437L16.8656 3.075C17.0083 2.94573 17.1952 2.87627 17.3877 2.88101C17.5801 2.88575 17.7634 2.96432 17.8995 3.10046C18.0357 3.23659 18.1142 3.41986 18.119 3.61233C18.1237 3.80479 18.0543 3.99171 17.925 4.13437L16.8656 5.19609C16.796 5.2659 16.7132 5.32128 16.6221 5.35906C16.531 5.39684 16.4334 5.41629 16.3348 5.41629C16.2361 5.41629 16.1385 5.39684 16.0474 5.35906C15.9563 5.32128 15.8736 5.2659 15.8039 5.19609Z" fill="black"/>
</svg>
