<svg width="32" height="32" viewBox="0 0 32 32" fill="none" xmlns="http://www.w3.org/2000/svg">
<path d="M20.0974 2.66667H11.9174C4.44275 2.66667 2.66675 4.444 2.66675 11.9027V20.084C2.66675 27.556 4.43075 29.3333 11.9027 29.3333H20.0841C27.5561 29.3333 29.3334 27.5693 29.3334 20.0973V11.9173C29.3334 4.44267 27.5694 2.66667 20.0974 2.66667ZM24.1947 21.6933H22.2494C21.5134 21.6933 21.2921 21.0973 19.9721 19.7773C18.8201 18.6667 18.3334 18.528 18.0414 18.528C17.6387 18.528 17.5281 18.6387 17.5281 19.1947V20.944C17.5281 21.4173 17.3747 21.6947 16.1387 21.6947C14.9394 21.6132 13.7765 21.2484 12.7456 20.6302C11.7146 20.0121 10.845 19.1582 10.2081 18.1387C8.69655 16.2594 7.64545 14.0526 7.13875 11.6947C7.13875 11.4027 7.24941 11.1387 7.80542 11.1387H9.75075C10.2507 11.1387 10.4307 11.3613 10.6254 11.8747C11.5694 14.6533 13.1801 17.0693 13.8334 17.0693C14.0841 17.0693 14.1934 16.9587 14.1934 16.3333V13.472C14.1107 12.1667 13.4174 12.056 13.4174 11.584C13.4263 11.4595 13.4834 11.3434 13.5765 11.2602C13.6696 11.1771 13.7914 11.1335 13.9161 11.1387H16.9721C17.3894 11.1387 17.5281 11.3467 17.5281 11.8467V15.708C17.5281 16.1253 17.7081 16.264 17.8334 16.264C18.0841 16.264 18.2774 16.1253 18.7361 15.6667C19.7212 14.4653 20.5261 13.1268 21.1254 11.6933C21.1871 11.5214 21.303 11.3742 21.4558 11.2742C21.6086 11.1741 21.7898 11.1265 21.9721 11.1387H23.9174C24.5001 11.1387 24.6241 11.4307 24.5001 11.8467C23.7928 13.4313 22.9176 14.9354 21.8894 16.3333C21.6801 16.6533 21.5961 16.82 21.8894 17.1947C22.0827 17.4867 22.7641 18.056 23.2227 18.5973C23.889 19.2624 24.4425 20.0316 24.8614 20.8747C25.0281 21.416 24.7494 21.6933 24.1947 21.6933Z" fill="black"/>
</svg>
