<svg width="32" height="32" viewBox="0 0 32 32" fill="none" xmlns="http://www.w3.org/2000/svg">
<path d="M12.0534 28.72C13.3334 29.1067 14.6267 29.3333 16.0001 29.3333C19.5363 29.3333 22.9277 27.9286 25.4282 25.4281C27.9287 22.9276 29.3334 19.5362 29.3334 16C29.3334 14.249 28.9885 12.5152 28.3185 10.8976C27.6484 9.27988 26.6663 7.81003 25.4282 6.57191C24.1901 5.3338 22.7202 4.35167 21.1025 3.68161C19.4849 3.01154 17.751 2.66667 16.0001 2.66667C14.2491 2.66667 12.5153 3.01154 10.8976 3.68161C9.27996 4.35167 7.81011 5.3338 6.57199 6.57191C4.07151 9.0724 2.66675 12.4638 2.66675 16C2.66675 21.6667 6.22675 26.5333 11.2534 28.4533C11.1334 27.4133 11.0134 25.6933 11.2534 24.5067L12.7867 17.92C12.7867 17.92 12.4001 17.1467 12.4001 15.92C12.4001 14.08 13.5467 12.7067 14.8534 12.7067C16.0001 12.7067 16.5334 13.5467 16.5334 14.6267C16.5334 15.7733 15.7734 17.4133 15.3867 18.9867C15.1601 20.2933 16.0801 21.44 17.4134 21.44C19.7867 21.44 21.6267 18.9067 21.6267 15.3333C21.6267 12.1333 19.3334 9.94667 16.0401 9.94667C12.2801 9.94667 10.0667 12.7467 10.0667 15.6933C10.0667 16.84 10.4401 18 11.0534 18.76C11.1734 18.84 11.1734 18.9467 11.1334 19.1467L10.7467 20.6C10.7467 20.8267 10.6001 20.9067 10.3734 20.7467C8.66675 20 7.68008 17.5733 7.68008 15.6133C7.68008 11.4 10.6667 7.57333 16.4267 7.57333C21.0134 7.57333 24.5868 10.8667 24.5868 15.24C24.5868 19.8267 21.7467 23.5067 17.6801 23.5067C16.3867 23.5067 15.1201 22.8133 14.6667 22L13.7734 25.16C13.4667 26.3067 12.6267 27.84 12.0534 28.76V28.72Z" fill="black"/>
</svg>
