<svg width="32" height="32" viewBox="0 0 32 32" fill="none" xmlns="http://www.w3.org/2000/svg">
<path d="M16.0014 12C14.9405 12 13.9231 12.4214 13.173 13.1716C12.4228 13.9217 12.0014 14.9391 12.0014 16C12.0014 17.0609 12.4228 18.0783 13.173 18.8284C13.9231 19.5786 14.9405 20 16.0014 20C17.0623 20 18.0797 19.5786 18.8298 18.8284C19.58 18.0783 20.0014 17.0609 20.0014 16C20.0014 14.9391 19.58 13.9217 18.8298 13.1716C18.0797 12.4214 17.0623 12 16.0014 12ZM16.0014 9.33333C17.7695 9.33333 19.4652 10.0357 20.7155 11.286C21.9657 12.5362 22.6681 14.2319 22.6681 16C22.6681 17.7681 21.9657 19.4638 20.7155 20.714C19.4652 21.9643 17.7695 22.6667 16.0014 22.6667C14.2333 22.6667 12.5376 21.9643 11.2874 20.714C10.0371 19.4638 9.33475 17.7681 9.33475 16C9.33475 14.2319 10.0371 12.5362 11.2874 11.286C12.5376 10.0357 14.2333 9.33333 16.0014 9.33333ZM24.6681 9C24.6681 9.44203 24.4925 9.86595 24.1799 10.1785C23.8674 10.4911 23.4434 10.6667 23.0014 10.6667C22.5594 10.6667 22.1355 10.4911 21.8229 10.1785C21.5103 9.86595 21.3347 9.44203 21.3347 9C21.3347 8.55797 21.5103 8.13405 21.8229 7.82149C22.1355 7.50893 22.5594 7.33333 23.0014 7.33333C23.4434 7.33333 23.8674 7.50893 24.1799 7.82149C24.4925 8.13405 24.6681 8.55797 24.6681 9ZM16.0014 5.33333C12.7027 5.33333 12.1641 5.34267 10.6294 5.41067C9.58408 5.46 8.88275 5.6 8.23208 5.85333C7.68786 6.05383 7.19571 6.37418 6.79208 6.79067C6.37511 7.19416 6.0543 7.68632 5.85341 8.23067C5.60008 8.884 5.46008 9.584 5.41208 10.628C5.34275 12.1 5.33341 12.6147 5.33341 16C5.33341 19.3 5.34275 19.8373 5.41075 21.372C5.46008 22.416 5.60008 23.1187 5.85208 23.768C6.07875 24.348 6.34541 24.7653 6.78808 25.208C7.23741 25.656 7.65475 25.924 8.22808 26.1453C8.88675 26.4 9.58808 26.5413 10.6281 26.5893C12.1001 26.6587 12.6147 26.6667 16.0001 26.6667C19.3001 26.6667 19.8374 26.6573 21.3721 26.5893C22.4147 26.54 23.1161 26.4 23.7681 26.148C24.3123 25.9475 24.8045 25.6272 25.2081 25.2107C25.6574 24.7627 25.9254 24.3453 26.1467 23.7707C26.4001 23.1147 26.5414 22.4133 26.5894 21.3707C26.6587 19.9 26.6667 19.384 26.6667 16C26.6667 12.7013 26.6574 12.1627 26.5894 10.628C26.5401 9.58534 26.3988 8.88133 26.1467 8.23067C25.9463 7.68644 25.6259 7.1943 25.2094 6.79067C24.8059 6.3737 24.3138 6.05288 23.7694 5.852C23.1161 5.59867 22.4147 5.45867 21.3721 5.41067C19.9014 5.34133 19.3867 5.33333 16.0001 5.33333M16.0001 2.66667C19.6227 2.66667 20.0747 2.68 21.4974 2.74667C22.9161 2.81333 23.8841 3.036 24.7334 3.36667C25.6134 3.70533 26.3547 4.164 27.0961 4.904C27.7743 5.57031 28.299 6.37663 28.6334 7.26667C28.9627 8.116 29.1868 9.084 29.2534 10.504C29.3161 11.9253 29.3334 12.3773 29.3334 16C29.3334 19.6227 29.3201 20.0747 29.2534 21.496C29.1868 22.9173 28.9627 23.8827 28.6334 24.7333C28.299 25.6234 27.7743 26.4297 27.0961 27.096C26.4298 27.7743 25.6235 28.2989 24.7334 28.6333C23.8841 28.9627 22.9161 29.1867 21.4974 29.2533C20.0747 29.316 19.6227 29.3333 16.0001 29.3333C12.3774 29.3333 11.9254 29.32 10.5027 29.2533C9.08408 29.1867 8.11741 28.9627 7.26675 28.6333C6.37671 28.2989 5.57039 27.7743 4.90408 27.096C4.22582 26.4297 3.70117 25.6234 3.36675 24.7333C3.03608 23.884 2.81341 22.916 2.74675 21.496C2.68275 20.0747 2.66675 19.6227 2.66675 16C2.66675 12.3773 2.68008 11.9253 2.74675 10.504C2.81341 9.08267 3.03608 8.11733 3.36675 7.26667C3.70117 6.37663 4.22582 5.57031 4.90408 4.904C5.57039 4.22574 6.37671 3.70109 7.26675 3.36667C8.11608 3.036 9.08275 2.81333 10.5027 2.74667C11.9267 2.684 12.3787 2.66667 16.0014 2.66667" fill="black"/>
</svg>
